<?xml version="1.0" encoding="UTF-8" standalone="no"?>
<svg
   version="1.0"
   width="83.879265mm"
   height="27.7876mm"
   id="svg19"
   sodipodi:docname="DVRPC logo_Alternate_official color.emf"
   xmlns:inkscape="http://www.inkscape.org/namespaces/inkscape"
   xmlns:sodipodi="http://sodipodi.sourceforge.net/DTD/sodipodi-0.dtd"
   xmlns="http://www.w3.org/2000/svg"
   xmlns:svg="http://www.w3.org/2000/svg">
  <sodipodi:namedview
     id="namedview21"
     pagecolor="#ffffff"
     bordercolor="#000000"
     borderopacity="0.25"
     inkscape:showpageshadow="2"
     inkscape:pageopacity="0.0"
     inkscape:pagecheckerboard="0"
     inkscape:deskcolor="#d1d1d1"
     inkscape:document-units="mm" />
  <defs
     id="defs3">
    <pattern
       id="EMFhbasepattern"
       patternUnits="userSpaceOnUse"
       width="6"
       height="6"
       x="0"
       y="0" />
  </defs>
  <path
     style="fill:#06688E;fill-rule:nonzero;fill-opacity:1;stroke:none;"
     d="  M 42.666667,23.666667   C 39,22 35,21 30.666667,21   C 14,21 0.33333333,34.666667 0.33333333,51.333333   C 0.33333333,61.333333 5.6666667,70.333333 13.333333,75.666667   z  M 4.6666667,62   C 4.6666667,62 7.3333333,60.333333 7.3333333,60.333333   C 15.333333,55 21.666667,47.666667 24,38   C 25.333333,33.666667 25.666667,29.333333 25.666667,24.666667   C 25.666667,24.333333 25.666667,23.666667 25.666667,23   C 25.666667,23 25.666667,23.333333 26,23.333333   C 26,23.333333 26.666667,24.333333 26.333333,24   C 26.666667,24.333333 27,25 27.333333,25.666667   C 27.666667,26 28,26.666667 28.333333,27   C 28.333333,27.666667 28.666667,28.333333 28.666667,29   C 31.333333,37 30,46.666667 24.333333,53   C 23,55 21,56.666667 19,58   C 15.666667,60 12.333333,61.666667 8.3333333,62   C 7.3333333,62.333333 5.6666667,62.333333 4.6666667,62   z "
     id="path5" />
  <path
     style="fill:#06688E;fill-rule:nonzero;fill-opacity:1;stroke:none;"
     d="  M 47.333333,26.333333   C 18,78.666667 18,78.666667 18,78.666667   C 22,80.333333 26,81.333333 30.666667,81.333333   C 47,81.333333 60.666667,67.666667 60.666667,51.333333   C 60.666667,41 55.333333,31.666667 47.333333,26.333333   z  M 37,63.666667   C 35.666667,68.333333 35,73 34.666667,77.666667   C 34.666667,78.333333 34.666667,79 34.666667,79.666667   C 34.666667,79.666667 34.666667,79.333333 34.666667,79.333333   C 34.333333,79.333333 34,78.333333 34,78.666667   C 33.666667,78 33.333333,77.666667 33,77   C 32.666667,76.333333 32.333333,75.666667 32.333333,75.333333   C 32,74.666667 32,74 31.666667,73.333333   C 29.333333,65 31.333333,54.666667 37,48   C 38.666667,46.333333 41,44.333333 43,43   C 46.333333,41 50,39.666667 54,39.333333   C 55.333333,39 57,39 57.666667,39.333333   C 57.666667,39.333333 55.333333,41 55,41   C 46.666667,46.333333 40,54 37,63.666667   z "
     id="path7" />
  <path
     style="fill:#06688E;fill-rule:nonzero;fill-opacity:1;stroke:none;"
     d="  M 121,75.333333   C 107.66667,75.333333 107.66667,75.333333 107.66667,75.333333   C 107.66667,70.333333 107.66667,70.333333 107.66667,70.333333   C 107.66667,70.333333 107.66667,70.333333 107.66667,70.333333   C 106.33333,72.333333 103,77 93.666667,77   C 79.666667,77 70.333333,66 70.333333,52   C 70.333333,36.333333 81.666667,27.666667 93.333333,27.666667   C 101.66667,27.666667 105.66667,31.666667 107,33   C 107,0 107,0 107,0   C 121,0 121,0 121,0   z  M 96,64   C 104.66667,64 107.66667,57 107.66667,52   C 107.66667,46.333333 103.66667,40.333333 96,40.333333   C 88,40.333333 84.333333,46.666667 84.333333,52   C 84.333333,59.333333 89.333333,64 96,64   z "
     id="path9" />
  <path
     style="fill:#06688E;fill-rule:nonzero;fill-opacity:1;stroke:none;"
     d="  M 157,75.333333   L 144,75.333333   L 127.33333,29   L 141.66667,29   L 150.33333,58   L 150.66667,58   L 159.66667,29   L 174,29   L 157,75.333333  z   "
     id="path11" />
  <path
     style="fill:#06688E;fill-rule:nonzero;fill-opacity:1;stroke:none;"
     d="  M 180.33333,29   C 193.33333,29 193.33333,29 193.33333,29   C 193.33333,34 193.33333,34 193.33333,34   C 193.33333,34 193.33333,34 193.33333,34   C 194.66667,31.666667 197,27.666667 205,27.666667   C 205,41.333333 205,41.333333 205,41.333333   C 198.66667,41.666667 194,43 194,50   C 194,75.333333 194,75.333333 194,75.333333   C 180.33333,75.333333 180.33333,75.333333 180.33333,75.333333   z "
     id="path13" />
  <path
     style="fill:#06688E;fill-rule:nonzero;fill-opacity:1;stroke:none;"
     d="  M 212.33333,29   C 225.33333,29 225.33333,29 225.33333,29   C 225.33333,34.333333 225.33333,34.333333 225.33333,34.333333   C 225.33333,34.333333 225.33333,34.333333 225.33333,34.333333   C 225.66667,34.333333 225.66667,34.333333 225.66667,34.333333   C 228.33333,30.666667 233,27.666667 240,27.666667   C 256.33333,27.666667 262.66667,42 262.66667,52.666667   C 262.66667,66 253.33333,77 240,77   C 231.66667,77 227.66667,73 226,71.333333   C 226,104.66667 226,104.66667 226,104.66667   C 212.33333,104.66667 212.33333,104.66667 212.33333,104.66667   z  M 248.66667,52.333333   C 248.66667,46.666667 244.66667,40.333333 237,40.333333   C 229.66667,40.333333 225.66667,46.666667 225.66667,52.333333   C 225.66667,58 230,64 237,64   C 244.33333,64 248.66667,58 248.66667,52.333333   z "
     id="path15" />
  <path
     style="fill:#06688E;fill-rule:nonzero;fill-opacity:1;stroke:none;"
     d="  M 317.33333,57.666667   C 314.66667,68.333333 305.33333,77 293,77   C 279,77 268,66 268,52   C 268,38.666667 278.66667,27.666667 292.66667,27.666667   C 305,27.666667 314.66667,35.666667 317,47   C 303,47 303,47 303,47   C 301.66667,43.666667 299,40.333333 293,40.333333   C 286.33333,40 282,45.666667 282,52.333333   C 282,59 286.33333,64 293,64   C 299,64 301.66667,60.666667 303,57.666667   z "
     id="path17" />
</svg>
